<mxfile host="app.diagrams.net" modified="2022-09-14T01:21:24.994Z" agent="5.0 (Windows NT 10.0; Win64; x64) AppleWebKit/537.36 (KHTML, like Gecko) Chrome/104.0.5112.102 Safari/537.36 OPR/90.0.4480.84" etag="gf4DE4HAXY9Q72Zr_S-f" version="20.2.2" type="github">
  <diagram name="Page-1" id="c37626ed-c26b-45fb-9056-f9ebc6bb27b6">
    <mxGraphModel dx="877" dy="530" grid="1" gridSize="10" guides="1" tooltips="1" connect="1" arrows="1" fold="1" page="1" pageScale="1" pageWidth="1100" pageHeight="850" background="none" math="0" shadow="0">
      <root>
        <mxCell id="0" />
        <mxCell id="1" parent="0" />
        <mxCell id="J4oWvlVwAZuxnHk8WQZ3-12" style="edgeStyle=orthogonalEdgeStyle;rounded=0;orthogonalLoop=1;jettySize=auto;html=1;" edge="1" parent="1" source="J4oWvlVwAZuxnHk8WQZ3-9" target="J4oWvlVwAZuxnHk8WQZ3-10">
          <mxGeometry relative="1" as="geometry" />
        </mxCell>
        <mxCell id="J4oWvlVwAZuxnHk8WQZ3-22" style="edgeStyle=orthogonalEdgeStyle;rounded=0;orthogonalLoop=1;jettySize=auto;html=1;" edge="1" parent="1" source="J4oWvlVwAZuxnHk8WQZ3-9" target="J4oWvlVwAZuxnHk8WQZ3-19">
          <mxGeometry relative="1" as="geometry" />
        </mxCell>
        <mxCell id="J4oWvlVwAZuxnHk8WQZ3-34" style="edgeStyle=orthogonalEdgeStyle;rounded=0;orthogonalLoop=1;jettySize=auto;html=1;" edge="1" parent="1" source="J4oWvlVwAZuxnHk8WQZ3-9" target="J4oWvlVwAZuxnHk8WQZ3-17">
          <mxGeometry relative="1" as="geometry">
            <Array as="points">
              <mxPoint x="250" y="390" />
              <mxPoint x="250" y="188" />
            </Array>
          </mxGeometry>
        </mxCell>
        <mxCell id="J4oWvlVwAZuxnHk8WQZ3-9" value="Switch [ Core ]" style="verticalLabelPosition=bottom;sketch=0;aspect=fixed;html=1;verticalAlign=top;strokeColor=none;align=center;outlineConnect=0;shape=mxgraph.citrix.netscaler_vpx;shadow=0;labelBackgroundColor=#FFFFFF;fillColor=default;" vertex="1" parent="1">
          <mxGeometry x="310" y="376.29" width="144.72" height="53.71" as="geometry" />
        </mxCell>
        <mxCell id="J4oWvlVwAZuxnHk8WQZ3-10" value="Switch 4° Andar" style="verticalLabelPosition=bottom;sketch=0;aspect=fixed;html=1;verticalAlign=top;strokeColor=none;align=center;outlineConnect=0;shape=mxgraph.citrix.netscaler_vpx;shadow=0;labelBackgroundColor=#FFFFFF;fillColor=default;" vertex="1" parent="1">
          <mxGeometry x="333.86" y="170" width="97" height="36" as="geometry" />
        </mxCell>
        <mxCell id="J4oWvlVwAZuxnHk8WQZ3-14" value="Switch Cito 2" style="verticalLabelPosition=bottom;sketch=0;aspect=fixed;html=1;verticalAlign=top;strokeColor=none;align=center;outlineConnect=0;shape=mxgraph.citrix.netscaler_vpx;shadow=0;labelBackgroundColor=#FFFFFF;fillColor=default;" vertex="1" parent="1">
          <mxGeometry x="70" y="520" width="97" height="36" as="geometry" />
        </mxCell>
        <mxCell id="J4oWvlVwAZuxnHk8WQZ3-26" style="edgeStyle=orthogonalEdgeStyle;rounded=0;orthogonalLoop=1;jettySize=auto;html=1;" edge="1" parent="1" source="J4oWvlVwAZuxnHk8WQZ3-15" target="J4oWvlVwAZuxnHk8WQZ3-14">
          <mxGeometry relative="1" as="geometry" />
        </mxCell>
        <mxCell id="J4oWvlVwAZuxnHk8WQZ3-29" style="edgeStyle=orthogonalEdgeStyle;rounded=0;orthogonalLoop=1;jettySize=auto;html=1;" edge="1" parent="1" source="J4oWvlVwAZuxnHk8WQZ3-15" target="J4oWvlVwAZuxnHk8WQZ3-9">
          <mxGeometry relative="1" as="geometry" />
        </mxCell>
        <mxCell id="J4oWvlVwAZuxnHk8WQZ3-15" value="Switch Cito 1" style="verticalLabelPosition=bottom;sketch=0;aspect=fixed;html=1;verticalAlign=top;strokeColor=none;align=center;outlineConnect=0;shape=mxgraph.citrix.netscaler_vpx;shadow=0;labelBackgroundColor=#FFFFFF;fillColor=default;" vertex="1" parent="1">
          <mxGeometry x="70" y="440" width="97" height="36" as="geometry" />
        </mxCell>
        <mxCell id="J4oWvlVwAZuxnHk8WQZ3-16" value="Switch Oftalmologia" style="verticalLabelPosition=bottom;sketch=0;aspect=fixed;html=1;verticalAlign=top;strokeColor=none;align=center;outlineConnect=0;shape=mxgraph.citrix.netscaler_vpx;shadow=0;labelBackgroundColor=#FFFFFF;fillColor=default;" vertex="1" parent="1">
          <mxGeometry x="70" y="250" width="97" height="36" as="geometry" />
        </mxCell>
        <mxCell id="J4oWvlVwAZuxnHk8WQZ3-17" value="Switch Ambulatórios" style="verticalLabelPosition=bottom;sketch=0;aspect=fixed;html=1;verticalAlign=top;strokeColor=none;align=center;outlineConnect=0;shape=mxgraph.citrix.netscaler_vpx;shadow=0;labelBackgroundColor=#FFFFFF;fillColor=default;" vertex="1" parent="1">
          <mxGeometry x="70" y="170" width="97" height="36" as="geometry" />
        </mxCell>
        <mxCell id="J4oWvlVwAZuxnHk8WQZ3-23" style="edgeStyle=orthogonalEdgeStyle;rounded=0;orthogonalLoop=1;jettySize=auto;html=1;" edge="1" parent="1" source="J4oWvlVwAZuxnHk8WQZ3-19" target="J4oWvlVwAZuxnHk8WQZ3-16">
          <mxGeometry relative="1" as="geometry" />
        </mxCell>
        <mxCell id="J4oWvlVwAZuxnHk8WQZ3-19" value="Switch Oncologia" style="verticalLabelPosition=bottom;sketch=0;aspect=fixed;html=1;verticalAlign=top;strokeColor=none;align=center;outlineConnect=0;shape=mxgraph.citrix.netscaler_vpx;shadow=0;labelBackgroundColor=#FFFFFF;fillColor=default;" vertex="1" parent="1">
          <mxGeometry x="70" y="340" width="97" height="36" as="geometry" />
        </mxCell>
      </root>
    </mxGraphModel>
  </diagram>
</mxfile>
